<mxfile host="app.diagrams.net" modified="2024-05-03T15:11:52.637Z" agent="Mozilla/5.0 (Windows NT 10.0; Win64; x64) AppleWebKit/537.36 (KHTML, like Gecko) Chrome/124.0.0.0 Safari/537.36 Edg/124.0.0.0" etag="szj4giPKeJwT6WeJBjeH" version="24.3.1" type="device">
  <diagram id="yPxyJZ8AM_hMuL3Unpa9" name="gitflow">
    <mxGraphModel dx="1155" dy="654" grid="1" gridSize="10" guides="1" tooltips="1" connect="1" arrows="1" fold="1" page="1" pageScale="1" pageWidth="850" pageHeight="1100" math="0" shadow="0">
      <root>
        <mxCell id="0" />
        <mxCell id="1" parent="0" />
        <mxCell id="mXROdr9lhoMFYeXqloNZ-33" value="JTypeInfo" style="swimlane;fontStyle=0;childLayout=stackLayout;horizontal=1;startSize=30;horizontalStack=0;resizeParent=1;resizeParentMax=0;resizeLast=0;collapsible=1;marginBottom=0;whiteSpace=wrap;html=1;" vertex="1" parent="1">
          <mxGeometry x="400" y="150" width="140" height="60" as="geometry" />
        </mxCell>
        <mxCell id="mXROdr9lhoMFYeXqloNZ-34" value="type information" style="text;strokeColor=#82b366;fillColor=#d5e8d4;align=left;verticalAlign=middle;spacingLeft=4;spacingRight=4;overflow=hidden;points=[[0,0.5],[1,0.5]];portConstraint=eastwest;rotatable=0;whiteSpace=wrap;html=1;" vertex="1" parent="mXROdr9lhoMFYeXqloNZ-33">
          <mxGeometry y="30" width="140" height="30" as="geometry" />
        </mxCell>
        <mxCell id="mXROdr9lhoMFYeXqloNZ-48" value="" style="edgeStyle=orthogonalEdgeStyle;rounded=0;orthogonalLoop=1;jettySize=auto;html=1;entryX=1;entryY=0.25;entryDx=0;entryDy=0;strokeWidth=4;" edge="1" parent="1" source="mXROdr9lhoMFYeXqloNZ-37" target="mXROdr9lhoMFYeXqloNZ-33">
          <mxGeometry relative="1" as="geometry" />
        </mxCell>
        <mxCell id="mXROdr9lhoMFYeXqloNZ-37" value="JMethodInfo" style="swimlane;fontStyle=0;childLayout=stackLayout;horizontal=1;startSize=30;horizontalStack=0;resizeParent=1;resizeParentMax=0;resizeLast=0;collapsible=1;marginBottom=0;whiteSpace=wrap;html=1;" vertex="1" parent="1">
          <mxGeometry x="640" y="70" width="140" height="90" as="geometry" />
        </mxCell>
        <mxCell id="mXROdr9lhoMFYeXqloNZ-38" value="type info pointer" style="text;strokeColor=#82b366;fillColor=#d5e8d4;align=left;verticalAlign=middle;spacingLeft=4;spacingRight=4;overflow=hidden;points=[[0,0.5],[1,0.5]];portConstraint=eastwest;rotatable=0;whiteSpace=wrap;html=1;" vertex="1" parent="mXROdr9lhoMFYeXqloNZ-37">
          <mxGeometry y="30" width="140" height="30" as="geometry" />
        </mxCell>
        <mxCell id="mXROdr9lhoMFYeXqloNZ-39" value="method information" style="text;strokeColor=#82b366;fillColor=#d5e8d4;align=left;verticalAlign=middle;spacingLeft=4;spacingRight=4;overflow=hidden;points=[[0,0.5],[1,0.5]];portConstraint=eastwest;rotatable=0;whiteSpace=wrap;html=1;" vertex="1" parent="mXROdr9lhoMFYeXqloNZ-37">
          <mxGeometry y="60" width="140" height="30" as="geometry" />
        </mxCell>
        <mxCell id="mXROdr9lhoMFYeXqloNZ-40" value="JParameterInfo" style="swimlane;fontStyle=0;childLayout=stackLayout;horizontal=1;startSize=30;horizontalStack=0;resizeParent=1;resizeParentMax=0;resizeLast=0;collapsible=1;marginBottom=0;whiteSpace=wrap;html=1;" vertex="1" parent="1">
          <mxGeometry x="640" y="190" width="140" height="90" as="geometry" />
        </mxCell>
        <mxCell id="mXROdr9lhoMFYeXqloNZ-41" value="type info pointer" style="text;strokeColor=#82b366;fillColor=#d5e8d4;align=left;verticalAlign=middle;spacingLeft=4;spacingRight=4;overflow=hidden;points=[[0,0.5],[1,0.5]];portConstraint=eastwest;rotatable=0;whiteSpace=wrap;html=1;" vertex="1" parent="mXROdr9lhoMFYeXqloNZ-40">
          <mxGeometry y="30" width="140" height="30" as="geometry" />
        </mxCell>
        <mxCell id="mXROdr9lhoMFYeXqloNZ-42" value="parameter information" style="text;strokeColor=#82b366;fillColor=#d5e8d4;align=left;verticalAlign=middle;spacingLeft=4;spacingRight=4;overflow=hidden;points=[[0,0.5],[1,0.5]];portConstraint=eastwest;rotatable=0;whiteSpace=wrap;html=1;" vertex="1" parent="mXROdr9lhoMFYeXqloNZ-40">
          <mxGeometry y="60" width="140" height="30" as="geometry" />
        </mxCell>
        <mxCell id="mXROdr9lhoMFYeXqloNZ-43" value="JReflectionInfo" style="swimlane;fontStyle=0;childLayout=stackLayout;horizontal=1;startSize=30;horizontalStack=0;resizeParent=1;resizeParentMax=0;resizeLast=0;collapsible=1;marginBottom=0;whiteSpace=wrap;html=1;" vertex="1" parent="1">
          <mxGeometry x="200" y="150" width="140" height="60" as="geometry" />
        </mxCell>
        <mxCell id="mXROdr9lhoMFYeXqloNZ-44" value="type info pointer" style="text;strokeColor=#82b366;fillColor=#d5e8d4;align=left;verticalAlign=middle;spacingLeft=4;spacingRight=4;overflow=hidden;points=[[0,0.5],[1,0.5]];portConstraint=eastwest;rotatable=0;whiteSpace=wrap;html=1;" vertex="1" parent="mXROdr9lhoMFYeXqloNZ-43">
          <mxGeometry y="30" width="140" height="30" as="geometry" />
        </mxCell>
        <mxCell id="mXROdr9lhoMFYeXqloNZ-51" value="" style="edgeStyle=orthogonalEdgeStyle;rounded=0;orthogonalLoop=1;jettySize=auto;html=1;exitX=0;exitY=0.5;exitDx=0;exitDy=0;entryX=1;entryY=0.25;entryDx=0;entryDy=0;strokeWidth=4;" edge="1" parent="1" source="mXROdr9lhoMFYeXqloNZ-41" target="mXROdr9lhoMFYeXqloNZ-33">
          <mxGeometry relative="1" as="geometry">
            <mxPoint x="650" y="165" as="sourcePoint" />
            <mxPoint x="550" y="205" as="targetPoint" />
          </mxGeometry>
        </mxCell>
        <mxCell id="mXROdr9lhoMFYeXqloNZ-53" value="" style="edgeStyle=orthogonalEdgeStyle;rounded=0;orthogonalLoop=1;jettySize=auto;html=1;exitX=1;exitY=0.75;exitDx=0;exitDy=0;entryX=0;entryY=0.25;entryDx=0;entryDy=0;strokeWidth=4;" edge="1" parent="1" source="mXROdr9lhoMFYeXqloNZ-43" target="mXROdr9lhoMFYeXqloNZ-33">
          <mxGeometry relative="1" as="geometry">
            <mxPoint x="650" y="245" as="sourcePoint" />
            <mxPoint x="550" y="175" as="targetPoint" />
          </mxGeometry>
        </mxCell>
      </root>
    </mxGraphModel>
  </diagram>
</mxfile>
